<svg width="2048" height="1024" viewBox="0 0 2048 1024" fill="none" xmlns="http://www.w3.org/2000/svg">
<rect width="2048" height="1024" fill="white"/>
<path fill-rule="evenodd" clip-rule="evenodd" d="M527.548 668.626H470.048C466.862 668.626 463.657 669.874 461.132 672.132C458.604 674.39 456.968 677.42 456.575 680.628L446.71 761.087C446.32 764.266 444.685 767.297 442.158 769.555C439.629 771.814 436.424 773.061 433.242 773.061H352.784C349.602 773.061 346.703 771.814 344.728 769.555C342.755 767.297 341.86 764.266 342.25 761.087L352.115 680.628C352.508 677.42 351.618 674.39 349.642 672.132C347.669 669.874 344.772 668.626 341.59 668.626H261.13C257.948 668.626 255.051 667.348 253.078 665.09C251.099 662.862 250.212 659.8 250.602 656.622L260.467 576.162C260.857 572.984 262.494 569.924 265.023 567.666C267.55 565.405 270.756 564.16 273.938 564.16H354.398C357.58 564.16 360.787 562.882 363.31 560.654C365.839 558.396 367.477 555.334 367.866 552.156L377.731 471.696C378.121 468.518 377.234 465.458 375.259 463.2C373.282 460.97 370.389 459.694 367.207 459.694H286.747C283.565 459.694 280.664 458.446 278.69 456.188C276.715 453.93 275.829 450.868 276.218 447.69L286.083 367.23C286.473 364.051 288.11 360.991 290.635 358.762C293.162 356.504 296.373 355.227 299.555 355.227H380.015C383.197 355.227 386.4 353.979 388.927 351.721C391.456 349.463 393.089 346.432 393.479 343.253L403.344 262.794C403.737 259.585 405.375 256.555 407.902 254.296C410.43 252.038 413.635 250.791 416.817 250.791H497.275C500.457 250.791 503.356 252.038 505.332 254.296C507.305 256.555 508.197 259.585 507.804 262.794L472.326 552.156C471.937 555.334 472.825 558.396 474.8 560.654C476.775 562.882 479.67 564.16 482.856 564.16H540.356L527.548 668.626Z" fill="#41D4F6"/>
<path fill-rule="evenodd" clip-rule="evenodd" d="M553.955 355.375C557.139 355.375 560.344 354.127 562.871 351.869C565.399 349.611 567.033 346.581 567.426 343.372L577.291 262.913C577.681 259.734 579.318 256.703 581.845 254.445C584.374 252.187 587.577 250.939 590.759 250.939H671.219C674.401 250.939 677.3 252.187 679.275 254.445C681.246 256.703 682.141 259.734 681.751 262.913L671.886 343.372C671.493 346.581 672.385 349.611 674.36 351.869C676.332 354.127 679.231 355.375 682.413 355.375H762.871C766.053 355.375 768.952 356.653 770.923 358.911C772.902 361.139 773.791 364.2 773.401 367.379L763.536 447.838C763.146 451.018 761.507 454.078 758.978 456.336C756.454 458.594 753.244 459.842 750.062 459.842H669.604C666.422 459.842 663.214 461.12 660.693 463.348C658.164 465.606 656.525 468.666 656.135 471.846L646.27 552.304C645.88 555.484 646.769 558.544 648.744 560.802C650.719 563.03 653.614 564.308 656.796 564.308H737.254C740.436 564.308 743.339 565.556 745.31 567.814C747.286 570.072 748.174 573.132 747.784 576.312L737.92 656.77C737.53 659.95 735.891 663.01 733.366 665.238C730.841 667.496 727.628 668.774 724.446 668.774H643.988C640.806 668.774 637.601 670.022 635.076 672.28C632.547 674.538 630.912 677.568 630.522 680.748L620.657 761.206C620.264 764.416 618.626 767.446 616.101 769.704C613.573 771.962 610.368 773.21 607.186 773.21H526.726C523.544 773.21 520.647 771.962 518.672 769.704C516.698 767.446 515.804 764.416 516.197 761.206L551.675 471.846C552.065 468.666 551.178 465.606 549.203 463.348C547.226 461.12 544.33 459.842 541.146 459.842H483.644L496.453 355.375H553.955Z" fill="#F64B40"/>
<path d="M1012.24 636H957.898L925.232 581.947C922.791 577.846 920.447 574.184 918.201 570.961C915.955 567.738 913.66 565.004 911.316 562.758C909.07 560.414 906.678 558.656 904.139 557.484C901.697 556.215 899.012 555.58 896.082 555.58H883.338V636H836.023V425.941H911.023C962 425.941 987.488 444.984 987.488 483.07C987.488 490.395 986.365 497.182 984.119 503.432C981.873 509.584 978.699 515.15 974.598 520.131C970.496 525.111 965.516 529.408 959.656 533.021C953.895 536.635 947.449 539.467 940.32 541.518V542.104C943.445 543.08 946.473 544.691 949.402 546.938C952.332 549.086 955.164 551.625 957.898 554.555C960.633 557.484 963.221 560.658 965.662 564.076C968.201 567.396 970.496 570.668 972.547 573.891L1012.24 636ZM883.338 461.391V519.838H903.846C914.002 519.838 922.156 516.908 928.309 511.049C934.559 505.092 937.684 497.719 937.684 488.93C937.684 470.57 926.697 461.391 904.725 461.391H883.338ZM1170.3 486L1109.36 648.012C1094.71 686.977 1072.64 706.459 1043.15 706.459C1031.92 706.459 1022.69 705.189 1015.47 702.65V665.736C1021.62 669.35 1028.31 671.156 1035.54 671.156C1047.45 671.156 1055.75 665.541 1060.44 654.311L1068.35 635.707L1007.41 486H1058.68L1086.66 577.26C1088.42 582.924 1089.78 589.613 1090.76 597.328H1091.35C1092.22 591.664 1093.84 585.072 1096.18 577.553L1124.45 486H1170.3ZM1331.43 636H1285.29V613.148H1284.56C1273.13 630.824 1257.85 639.662 1238.71 639.662C1203.94 639.662 1186.56 618.617 1186.56 576.527V486H1232.7V572.426C1232.7 593.617 1241.1 604.213 1257.9 604.213C1266.2 604.213 1272.84 601.332 1277.82 595.57C1282.8 589.711 1285.29 581.801 1285.29 571.84V486H1331.43V636ZM1393.98 462.27C1386.17 462.27 1379.77 459.975 1374.79 455.385C1369.81 450.697 1367.32 444.984 1367.32 438.246C1367.32 431.312 1369.81 425.648 1374.79 421.254C1379.77 416.859 1386.17 414.662 1393.98 414.662C1401.89 414.662 1408.29 416.859 1413.17 421.254C1418.15 425.648 1420.64 431.312 1420.64 438.246C1420.64 445.277 1418.15 451.039 1413.17 455.531C1408.29 460.023 1401.89 462.27 1393.98 462.27ZM1416.83 633.363C1416.83 655.531 1411.41 673.256 1400.57 686.537C1389.73 699.818 1374.11 706.459 1353.7 706.459C1346.96 706.459 1339.59 704.994 1331.58 702.064V665.736C1338.03 669.35 1343.74 671.156 1348.72 671.156C1363.27 671.156 1370.54 659.73 1370.54 636.879V486H1416.83V633.363ZM1479.24 462.27C1471.42 462.27 1465.03 459.975 1460.05 455.385C1455.07 450.697 1452.58 444.984 1452.58 438.246C1452.58 431.312 1455.07 425.648 1460.05 421.254C1465.03 416.859 1471.42 414.662 1479.24 414.662C1487.15 414.662 1493.54 416.859 1498.43 421.254C1503.41 425.648 1505.9 431.312 1505.9 438.246C1505.9 445.277 1503.41 451.039 1498.43 455.531C1493.54 460.023 1487.15 462.27 1479.24 462.27ZM1502.09 636H1455.8V486H1502.09V636ZM1685.93 636H1639.78V552.65C1639.78 529.408 1631.48 517.787 1614.88 517.787C1606.87 517.787 1600.28 520.863 1595.11 527.016C1589.93 533.168 1587.34 540.98 1587.34 550.453V636H1541.05V486H1587.34V509.73H1587.93C1598.96 491.469 1615.03 482.338 1636.12 482.338C1669.32 482.338 1685.93 502.943 1685.93 544.154V636ZM1867.57 486L1818.05 558.656L1867.27 636H1813.95L1792.27 595.57C1790.52 592.348 1788.42 587.807 1785.97 581.947H1785.39C1783.92 586.049 1781.92 590.443 1779.38 595.131L1757.56 636H1704.38L1755.07 561.293L1707.46 486H1761.07L1782.46 528.041C1785.29 533.607 1787.29 538.295 1788.46 542.104H1789.05C1790.61 537.514 1792.71 532.729 1795.35 527.748L1817.18 486H1867.57Z" fill="black"/>
</svg>
