<svg width="1057" height="293" viewBox="0 0 1057 293" fill="none" xmlns="http://www.w3.org/2000/svg">
<path d="M0.963068 231V12.8182H87.0426C103.52 12.8182 117.582 15.7656 129.23 21.6605C140.949 27.4844 149.862 35.7585 155.97 46.483C162.149 57.1364 165.239 69.6719 165.239 84.0895C165.239 98.5781 162.114 111.043 155.864 121.483C149.614 131.852 140.558 139.807 128.697 145.347C116.908 150.886 102.632 153.656 85.8707 153.656H28.2358V116.582H78.4134C87.2202 116.582 94.5355 115.375 100.359 112.96C106.183 110.545 110.516 106.923 113.357 102.094C116.268 97.2642 117.724 91.2628 117.724 84.0895C117.724 76.8452 116.268 70.7372 113.357 65.7656C110.516 60.794 106.148 57.0298 100.253 54.473C94.429 51.8452 87.0781 50.5312 78.2003 50.5312H47.0923V231H0.963068ZM118.79 131.71L173.016 231H122.092L69.0384 131.71H118.79ZM225.004 292.364C219.251 292.364 213.854 291.902 208.811 290.979C203.839 290.126 199.72 289.026 196.453 287.676L206.68 253.798C212.007 255.432 216.801 256.32 221.062 256.462C225.395 256.604 229.124 255.609 232.249 253.479C235.445 251.348 238.037 247.726 240.026 242.612L242.689 235.688L183.989 67.3636H231.716L265.594 187.534H267.298L301.496 67.3636H349.543L285.942 248.685C282.888 257.491 278.733 265.162 273.477 271.696C268.293 278.301 261.723 283.379 253.768 286.93C245.814 290.553 236.226 292.364 225.004 292.364ZM477.703 161.327V67.3636H523.087V231H479.514V201.277H477.81C474.116 210.865 467.973 218.571 459.379 224.395C450.857 230.219 440.452 233.131 428.165 233.131C417.227 233.131 407.604 230.645 399.294 225.673C390.984 220.702 384.486 213.635 379.798 204.473C375.182 195.311 372.838 184.338 372.767 171.554V67.3636H418.151V163.457C418.222 173.116 420.814 180.751 425.928 186.362C431.041 191.973 437.895 194.778 446.489 194.778C451.957 194.778 457.071 193.536 461.83 191.05C466.588 188.493 470.423 184.729 473.335 179.757C476.318 174.786 477.774 168.642 477.703 161.327ZM559.388 67.3636H604.772V239.097C604.772 251.739 602.286 261.966 597.314 269.778C592.343 277.591 585.205 283.308 575.901 286.93C566.668 290.553 555.624 292.364 542.769 292.364C541.206 292.364 539.715 292.328 538.294 292.257C536.803 292.257 535.24 292.222 533.607 292.151V256.675C534.814 256.746 535.88 256.781 536.803 256.781C537.655 256.852 538.578 256.888 539.573 256.888C546.888 256.888 552.002 255.325 554.914 252.2C557.897 249.146 559.388 244.53 559.388 238.351V67.3636ZM581.973 46.2699C575.297 46.2699 569.544 44.0327 564.715 39.5582C559.885 35.0128 557.471 29.5795 557.471 23.2585C557.471 17.0085 559.885 11.6463 564.715 7.17188C569.544 2.62641 575.297 0.353682 581.973 0.353682C588.792 0.353682 594.58 2.62641 599.338 7.17188C604.168 11.6463 606.583 17.0085 606.583 23.2585C606.583 29.5795 604.168 35.0128 599.338 39.5582C594.58 44.0327 588.792 46.2699 581.973 46.2699ZM641.126 231V67.3636H686.51V231H641.126ZM663.925 46.2699C657.178 46.2699 651.389 44.0327 646.56 39.5582C641.801 35.0128 639.422 29.5795 639.422 23.2585C639.422 17.0085 641.801 11.6463 646.56 7.17188C651.389 2.62641 657.178 0.353682 663.925 0.353682C670.672 0.353682 676.425 2.62641 681.183 7.17188C686.013 11.6463 688.428 17.0085 688.428 23.2585C688.428 29.5795 686.013 35.0128 681.183 39.5582C676.425 44.0327 670.672 46.2699 663.925 46.2699ZM768.248 136.398V231H722.865V67.3636H766.118V96.2344H768.035C771.657 86.7173 777.73 79.1889 786.252 73.6491C794.775 68.0384 805.109 65.233 817.254 65.233C828.618 65.233 838.525 67.7187 846.977 72.6903C855.429 77.6619 861.998 84.7642 866.686 93.9972C871.373 103.159 873.717 114.097 873.717 126.81V231H828.333V134.906C828.404 124.892 825.848 117.08 820.663 111.469C815.478 105.787 808.341 102.946 799.25 102.946C793.142 102.946 787.744 104.26 783.056 106.888C778.44 109.516 774.818 113.351 772.19 118.393C769.633 123.365 768.319 129.366 768.248 136.398ZM947.412 67.3636L977.455 124.572L1008.24 67.3636H1054.8L1007.39 149.182L1056.08 231H1009.73L977.455 174.43L945.707 231H898.832L947.412 149.182L900.537 67.3636H947.412Z" fill="white"/>
</svg>



